<svg width="24" height="24" viewBox="0 0 24 24" fill="none" xmlns="http://www.w3.org/2000/svg">
<g id="Iconly/Light-Outline/Arrow - Left">
<g id="Arrow - Left">
<path id="Stroke 1" d="M20 12.2743C20 12.654 19.7178 12.9678 19.3518 13.0175L19.25 13.0243L4.25 13.0243C3.83579 13.0243 3.5 12.6885 3.5 12.2743C3.5 11.8946 3.78215 11.5808 4.14823 11.5311L4.25 11.5243L19.25 11.5243C19.6642 11.5243 20 11.8601 20 12.2743Z" fill="#005C65"/>
<path id="Stroke 3" d="M10.829 17.7672C11.1225 18.0595 11.1235 18.5344 10.8313 18.8279C10.5656 19.0947 10.149 19.1198 9.85488 18.9026L9.77061 18.8302L3.72061 12.8062C3.45297 12.5397 3.42863 12.1216 3.64758 11.8275L3.72057 11.7433L9.77057 5.71827C10.0641 5.42599 10.5389 5.42697 10.8312 5.72047C11.0969 5.98728 11.1203 6.404 10.9018 6.69716L10.829 6.78113L5.313 12.275L10.829 17.7672Z" fill="#005C65"/>
</g>
</g>
</svg>
