<svg width="25" height="24" viewBox="0 0 25 24" fill="none" xmlns="http://www.w3.org/2000/svg">
<path d="M7.9812 9.34686H3.4812V4.84686" stroke="#005C65" stroke-width="2" stroke-linecap="round" stroke-linejoin="round"/>
<path d="M18.3312 6.16873C17.5658 5.40224 16.6569 4.79417 15.6563 4.37929C14.6557 3.9644 13.5831 3.75085 12.5 3.75085C11.4168 3.75085 10.3442 3.9644 9.34362 4.37929C8.34304 4.79417 7.43407 5.40224 6.6687 6.16873L3.4812 9.34685" stroke="#005C65" stroke-width="2" stroke-linecap="round" stroke-linejoin="round"/>
<path d="M17.0188 14.6531H21.5188V19.1531" stroke="#005C65" stroke-width="2" stroke-linecap="round" stroke-linejoin="round"/>
<path d="M6.6687 17.8313C7.43407 18.5977 8.34304 19.2058 9.34362 19.6207C10.3442 20.0356 11.4168 20.2491 12.5 20.2491C13.5831 20.2491 14.6557 20.0356 15.6563 19.6207C16.6569 19.2058 17.5658 18.5977 18.3312 17.8313L21.5187 14.6531" stroke="#005C65" stroke-width="2" stroke-linecap="round" stroke-linejoin="round"/>
</svg>
