<svg width="36" height="36" viewBox="0 0 36 36" fill="none" xmlns="http://www.w3.org/2000/svg">
<g id="Iconly/Bold/Hide">
<g id="Hide">
<path id="Hide_2" fill-rule="evenodd" clip-rule="evenodd" d="M14.7049 22.8789C15.6416 23.5139 16.7832 23.8978 17.998 23.8978C21.218 23.8978 23.8378 21.2544 23.8378 18.0055C23.8378 16.7798 23.4573 15.628 22.8279 14.6828L21.2326 16.2925C21.496 16.7946 21.6424 17.3853 21.6424 18.0055C21.6424 20.0287 20.0032 21.6827 17.998 21.6827C17.3833 21.6827 16.7979 21.535 16.3002 21.2692L14.7049 22.8789ZM27.6432 9.82427C29.7654 11.7736 31.5657 14.4022 32.9122 17.5625C33.0293 17.8431 33.0293 18.168 32.9122 18.4338C29.7801 25.7881 24.2037 30.1888 17.998 30.1888H17.9834C15.1586 30.1888 12.451 29.2585 10.0653 27.5602L7.22587 30.4251C7.00633 30.6466 6.72825 30.75 6.45016 30.75C6.17208 30.75 5.87935 30.6466 5.67445 30.4251C5.30855 30.0559 5.25 29.4652 5.54273 29.037L5.58663 28.9779L27.2334 7.13656C27.2627 7.10703 27.2919 7.07749 27.3066 7.04796L27.3066 7.04795C27.3358 7.01842 27.3651 6.98888 27.3797 6.95935L28.7555 5.5712C29.1946 5.14293 29.8825 5.14293 30.307 5.5712C30.746 5.99946 30.746 6.7083 30.307 7.13656L27.6432 9.82427ZM12.1475 18.0113C12.1475 18.3953 12.1915 18.7792 12.25 19.1336L6.83465 24.5977C5.37104 22.8846 4.09771 20.8171 3.08782 18.4396C2.97073 18.1737 2.97073 17.8489 3.08782 17.5683C6.21994 10.214 11.7963 5.828 17.9873 5.828H18.002C20.0949 5.828 22.1293 6.3301 24.0028 7.27523L19.1143 12.2076C18.7631 12.1485 18.3825 12.1042 18.002 12.1042C14.7674 12.1042 12.1475 14.7477 12.1475 18.0113Z" fill="#130F26"/>
</g>
</g>
</svg>
