<svg width="51" height="32" viewBox="0 0 51 32" fill="none" xmlns="http://www.w3.org/2000/svg">
<path d="M5.09375 23.5C4.88542 23.5 4.72917 23.4375 4.625 23.3125C4.54167 23.1875 4.5 23.0521 4.5 22.9062C4.5 22.7604 4.54167 22.6354 4.625 22.5312C4.70833 22.4062 4.83333 22.3542 5 22.375C4.875 22.25 4.66667 22.1979 4.375 22.2188C4.14583 22.2604 3.92708 22.4167 3.71875 22.6875C3.53125 22.9375 3.45833 23.2396 3.5 23.5938C3.52083 23.9688 3.67708 24.3229 3.96875 24.6562C4.26042 24.9896 4.66667 25.1458 5.1875 25.125C5.45833 25.125 5.71875 25.0521 5.96875 24.9062C6.21875 24.7604 6.4375 24.5729 6.625 24.3438C6.8125 24.0938 6.95833 23.8125 7.0625 23.5C7.16667 23.1875 7.21875 22.8646 7.21875 22.5312C7.19792 22.1771 7.11458 21.8333 6.96875 21.5C6.82292 21.1458 6.61458 20.8333 6.34375 20.5625C6.09375 20.2708 5.78125 20.0417 5.40625 19.875C5.03125 19.6875 4.60417 19.5938 4.125 19.5938C3.16667 19.5938 2.41667 19.8854 1.875 20.4688C1.33333 21.0521 1.08333 21.9062 1.125 23.0312C1.14583 23.5938 1.29167 24.1667 1.5625 24.75C1.83333 25.3125 2.20833 25.8229 2.6875 26.2812C3.1875 26.7396 3.77083 27.1042 4.4375 27.375C5.125 27.6667 5.875 27.8125 6.6875 27.8125C7.4375 27.8125 8.09375 27.6667 8.65625 27.375C9.21875 27.0833 9.69792 26.7083 10.0938 26.25C10.4896 25.7708 10.7812 25.2292 10.9688 24.625C11.1771 24.0208 11.2812 23.3958 11.2812 22.75C11.2812 22.3333 11.2083 21.875 11.0625 21.375C10.9375 20.875 10.6979 20.3438 10.3438 19.7812C10.0104 19.2188 9.5625 18.625 9 18C8.4375 17.375 7.72917 16.7396 6.875 16.0938C6.04167 15.4479 5.25 14.8438 4.5 14.2812C3.77083 13.7188 3.125 13.1667 2.5625 12.625C2.02083 12.0625 1.58333 11.4792 1.25 10.875C0.9375 10.25 0.78125 9.55208 0.78125 8.78125C0.78125 8.01042 0.916667 7.27083 1.1875 6.5625C1.47917 5.83333 1.89583 5.19792 2.4375 4.65625C3 4.11458 3.6875 3.6875 4.5 3.375C5.3125 3.04167 6.23958 2.89583 7.28125 2.9375C7.88542 2.95833 8.45833 3.0625 9 3.25C9.5625 3.4375 10.0833 3.625 10.5625 3.8125C11.0625 4 11.5312 4.15625 11.9688 4.28125C12.4062 4.38542 12.8125 4.36458 13.1875 4.21875C13.3542 4.15625 13.5 4.0625 13.625 3.9375C13.7292 3.83333 13.8333 3.69792 13.9375 3.53125C14.0417 3.36458 14.1146 3.13542 14.1562 2.84375L15.0312 2.90625C14.9688 3.30208 14.8958 3.80208 14.8125 4.40625C14.7292 5.01042 14.6667 5.64583 14.625 6.3125C14.6042 6.95833 14.6146 7.60417 14.6562 8.25C14.6979 8.875 14.8021 9.41667 14.9688 9.875L14.1562 10.0625C13.9688 9.47917 13.75 8.89583 13.5 8.3125C13.2708 7.70833 12.9896 7.15625 12.6562 6.65625C12.3438 6.15625 11.9792 5.70833 11.5625 5.3125C11.1458 4.91667 10.6562 4.60417 10.0938 4.375C9.59375 4.1875 9.08333 4.0625 8.5625 4C8.0625 3.91667 7.57292 3.94792 7.09375 4.09375C6.63542 4.23958 6.1875 4.5 5.75 4.875C5.33333 5.25 4.94792 5.79167 4.59375 6.5C4.23958 7.20833 4.09375 8 4.15625 8.875C4.23958 9.75 4.47917 10.5104 4.875 11.1562C5.10417 11.5729 5.375 11.9688 5.6875 12.3438C6.02083 12.6979 6.36458 13.0417 6.71875 13.375C7.07292 13.6875 7.4375 14 7.8125 14.3125C8.20833 14.625 8.59375 14.9375 8.96875 15.25C9.69792 15.8958 10.375 16.5417 11 17.1875C11.625 17.8333 12.1562 18.5 12.5938 19.1875C13.0521 19.8542 13.4062 20.5521 13.6562 21.2812C13.9062 21.9896 14.0312 22.7188 14.0312 23.4688C14.0312 24.2396 13.8438 24.9896 13.4688 25.7188C13.0938 26.4479 12.5729 27.0938 11.9062 27.6562C11.2604 28.2188 10.5 28.6667 9.625 29C8.77083 29.3542 7.86458 29.5312 6.90625 29.5312C5.96875 29.5312 5.08333 29.3646 4.25 29.0312C3.4375 28.7188 2.72917 28.2604 2.125 27.6562C1.52083 27.0729 1.04167 26.3854 0.6875 25.5938C0.333333 24.7812 0.15625 23.8854 0.15625 22.9062C0.15625 22.1354 0.270833 21.4896 0.5 20.9688C0.729167 20.4271 1.03125 19.9896 1.40625 19.6562C1.78125 19.3229 2.20833 19.0833 2.6875 18.9375C3.16667 18.7917 3.65625 18.7188 4.15625 18.7188C4.67708 18.7188 5.17708 18.8021 5.65625 18.9688C6.15625 19.1146 6.59375 19.3542 6.96875 19.6875C7.34375 20.0208 7.63542 20.4479 7.84375 20.9688C8.07292 21.4896 8.1875 22.1042 8.1875 22.8125C8.1875 23.3125 8.07292 23.7604 7.84375 24.1562C7.63542 24.5312 7.36458 24.8542 7.03125 25.125C6.69792 25.375 6.33333 25.5625 5.9375 25.6875C5.5625 25.8125 5.20833 25.8646 4.875 25.8438C4.54167 25.8229 4.23958 25.7396 3.96875 25.5938C3.69792 25.4479 3.45833 25.2708 3.25 25.0625C3.0625 24.8542 2.91667 24.6354 2.8125 24.4062C2.70833 24.1562 2.65625 23.9167 2.65625 23.6875C2.67708 23.4792 2.71875 23.25 2.78125 23C2.86458 22.75 2.98958 22.5208 3.15625 22.3125C3.32292 22.0833 3.53125 21.9062 3.78125 21.7812C4.03125 21.6354 4.33333 21.5625 4.6875 21.5625C5.02083 21.5625 5.29167 21.6667 5.5 21.875C5.70833 22.0625 5.82292 22.3021 5.84375 22.5938C5.88542 22.8438 5.82292 23.0625 5.65625 23.25C5.51042 23.4167 5.32292 23.5 5.09375 23.5ZM20.9525 15.75C21.2442 15.0625 21.5983 14.3958 22.015 13.75C22.4525 13.0833 22.9421 12.5 23.4837 12C24.0462 11.5 24.6504 11.125 25.2962 10.875C25.9421 10.6042 26.6296 10.5417 27.3587 10.6875C28.1921 10.8333 28.8483 11.2396 29.3275 11.9062C29.8275 12.5521 30.1921 13.3125 30.4212 14.1875C30.6712 15.0625 30.8171 15.9896 30.8587 16.9688C30.9004 17.9271 30.9108 18.7917 30.89 19.5625C30.8483 20.3542 30.7962 21.0833 30.7337 21.75C30.6921 22.4167 30.6296 23.0521 30.5462 23.6562C30.4837 24.2604 30.4108 24.8646 30.3275 25.4688C30.2442 26.0729 30.1608 26.6979 30.0775 27.3438C29.9733 28.2396 30.0462 28.9062 30.2962 29.3438C30.5671 29.8021 30.89 30.0625 31.265 30.125C31.64 30.1875 32.0046 30.0729 32.3587 29.7812C32.7337 29.4896 32.9837 29.0625 33.1087 28.5L33.6087 28.7188C33.5671 29.0938 33.4629 29.4583 33.2962 29.8125C33.1504 30.1667 32.9317 30.4583 32.64 30.6875C32.3692 30.9375 32.0358 31.1042 31.64 31.1875C31.2442 31.2708 30.7962 31.2396 30.2962 31.0938C29.8171 30.9479 29.4108 30.7396 29.0775 30.4688C28.765 30.1979 28.5254 29.8125 28.3587 29.3125C28.1921 28.8125 28.0879 28.1667 28.0462 27.375C28.0254 26.5833 28.0671 25.5938 28.1712 24.4062C28.2546 23.6146 28.3275 22.7812 28.39 21.9062C28.4733 21.0104 28.5254 20.1354 28.5462 19.2812C28.5671 18.4062 28.5358 17.5729 28.4525 16.7812C28.39 15.9896 28.2337 15.3021 27.9837 14.7188C27.7546 14.1146 27.4212 13.6354 26.9837 13.2812C26.5671 12.9271 26.015 12.75 25.3275 12.75C24.765 12.75 24.2233 12.9792 23.7025 13.4375C23.2025 13.8958 22.765 14.5 22.39 15.25C22.015 16 21.7129 16.8646 21.4837 17.8438C21.2754 18.8229 21.1712 19.8333 21.1712 20.875V20.8438C21.1712 20.9479 21.1712 21.0312 21.1712 21.0938C21.1921 21.1562 21.2025 21.2292 21.2025 21.3125C21.3067 22.375 21.4317 23.2188 21.5775 23.8438C21.7442 24.4688 21.9525 24.9688 22.2025 25.3438C22.4525 25.7188 22.7546 26.0208 23.1087 26.25C23.4837 26.4792 23.9212 26.7292 24.4212 27L24.265 27.5625C23.8692 27.4375 23.3067 27.2917 22.5775 27.125C21.8692 26.9583 21.1087 26.8229 20.2962 26.7188C19.4837 26.5938 18.6921 26.5208 17.9212 26.5C17.1504 26.4792 16.515 26.5625 16.015 26.75L15.765 26C16.0358 25.8958 16.3275 25.7917 16.64 25.6875C16.9733 25.5833 17.2858 25.3646 17.5775 25.0312C17.8692 24.6979 18.1192 24.1979 18.3275 23.5312C18.5358 22.8438 18.6712 21.8646 18.7337 20.5938C18.7962 19.3438 18.8379 18 18.8587 16.5625C18.9004 15.125 18.9108 13.7083 18.89 12.3125C18.8692 10.9167 18.8171 9.59375 18.7337 8.34375C18.6712 7.07292 18.5671 5.97917 18.4212 5.0625C18.2962 4.35417 18.1192 3.8125 17.89 3.4375C17.6608 3.04167 17.4004 2.75 17.1087 2.5625C16.8379 2.35417 16.5671 2.21875 16.2962 2.15625C16.0046 2.09375 15.7546 2.03125 15.5462 1.96875L15.515 1.46875C16.7858 1.57292 18.0775 1.58333 19.39 1.5C20.7233 1.39583 22.0046 1.07292 23.2337 0.53125L23.2962 1.0625C23.0671 1.29167 22.8379 1.5 22.6087 1.6875C22.4004 1.875 22.2025 2.125 22.015 2.4375C21.8275 2.75 21.6608 3.15625 21.515 3.65625C21.39 4.15625 21.2962 4.82292 21.2337 5.65625C21.1921 6.19792 21.1504 6.85417 21.1087 7.625C21.0879 8.39583 21.0567 9.22917 21.015 10.125C20.9942 11 20.9733 11.9271 20.9525 12.9062C20.9525 13.8646 20.9525 14.8125 20.9525 15.75ZM37.7487 15.75C38.0404 15.0625 38.3946 14.3958 38.8112 13.75C39.2487 13.0833 39.7383 12.5 40.28 12C40.8425 11.5 41.4467 11.125 42.0925 10.875C42.7383 10.6042 43.4258 10.5417 44.155 10.6875C44.9883 10.8333 45.6446 11.2396 46.1237 11.9062C46.6237 12.5521 46.9883 13.3125 47.2175 14.1875C47.4675 15.0625 47.6133 15.9896 47.655 16.9688C47.6967 17.9271 47.7071 18.7917 47.6862 19.5625C47.6446 20.3542 47.5925 21.0833 47.53 21.75C47.4883 22.4167 47.4258 23.0521 47.3425 23.6562C47.28 24.2604 47.2071 24.8646 47.1237 25.4688C47.0404 26.0729 46.9571 26.6979 46.8737 27.3438C46.7696 28.2396 46.8425 28.9062 47.0925 29.3438C47.3633 29.8021 47.6862 30.0625 48.0612 30.125C48.4362 30.1875 48.8008 30.0729 49.155 29.7812C49.53 29.4896 49.78 29.0625 49.905 28.5L50.405 28.7188C50.3633 29.0938 50.2592 29.4583 50.0925 29.8125C49.9467 30.1667 49.7279 30.4583 49.4362 30.6875C49.1654 30.9375 48.8321 31.1042 48.4362 31.1875C48.0404 31.2708 47.5925 31.2396 47.0925 31.0938C46.6133 30.9479 46.2071 30.7396 45.8737 30.4688C45.5612 30.1979 45.3217 29.8125 45.155 29.3125C44.9883 28.8125 44.8842 28.1667 44.8425 27.375C44.8217 26.5833 44.8633 25.5938 44.9675 24.4062C45.0508 23.6146 45.1237 22.7812 45.1862 21.9062C45.2696 21.0104 45.3217 20.1354 45.3425 19.2812C45.3633 18.4062 45.3321 17.5729 45.2487 16.7812C45.1862 15.9896 45.03 15.3021 44.78 14.7188C44.5508 14.1146 44.2175 13.6354 43.78 13.2812C43.3633 12.9271 42.8112 12.75 42.1237 12.75C41.5612 12.75 41.0196 12.9792 40.4987 13.4375C39.9987 13.8958 39.5612 14.5 39.1862 15.25C38.8112 16 38.5092 16.8646 38.28 17.8438C38.0717 18.8229 37.9675 19.8333 37.9675 20.875V20.8438C37.9675 20.9479 37.9675 21.0312 37.9675 21.0938C37.9883 21.1562 37.9987 21.2292 37.9987 21.3125C38.1029 22.375 38.2279 23.2188 38.3737 23.8438C38.5404 24.4688 38.7487 24.9688 38.9987 25.3438C39.2487 25.7188 39.5508 26.0208 39.905 26.25C40.28 26.4792 40.7175 26.7292 41.2175 27L41.0612 27.5625C40.6654 27.4375 40.1029 27.2917 39.3737 27.125C38.6654 26.9583 37.905 26.8229 37.0925 26.7188C36.28 26.5938 35.4883 26.5208 34.7175 26.5C33.9467 26.4792 33.3112 26.5625 32.8112 26.75L32.5612 26C32.8321 25.8958 33.1237 25.7917 33.4362 25.6875C33.7696 25.5833 34.0821 25.3646 34.3737 25.0312C34.6654 24.6979 34.9154 24.1979 35.1237 23.5312C35.3321 22.8438 35.4675 21.8646 35.53 20.5938C35.5925 19.3438 35.6342 18 35.655 16.5625C35.6967 15.125 35.7071 13.7083 35.6862 12.3125C35.6654 10.9167 35.6133 9.59375 35.53 8.34375C35.4675 7.07292 35.3633 5.97917 35.2175 5.0625C35.0925 4.35417 34.9154 3.8125 34.6862 3.4375C34.4571 3.04167 34.1967 2.75 33.905 2.5625C33.6342 2.35417 33.3633 2.21875 33.0925 2.15625C32.8008 2.09375 32.5508 2.03125 32.3425 1.96875L32.3112 1.46875C33.5821 1.57292 34.8737 1.58333 36.1862 1.5C37.5196 1.39583 38.8008 1.07292 40.03 0.53125L40.0925 1.0625C39.8633 1.29167 39.6342 1.5 39.405 1.6875C39.1967 1.875 38.9987 2.125 38.8112 2.4375C38.6237 2.75 38.4571 3.15625 38.3112 3.65625C38.1862 4.15625 38.0925 4.82292 38.03 5.65625C37.9883 6.19792 37.9467 6.85417 37.905 7.625C37.8842 8.39583 37.8529 9.22917 37.8112 10.125C37.7904 11 37.7696 11.9271 37.7487 12.9062C37.7487 13.8646 37.7487 14.8125 37.7487 15.75Z" fill="black"/>
</svg>
