<svg width="18" height="12" viewBox="0 0 18 12" fill="none" xmlns="http://www.w3.org/2000/svg">
<path fill-rule="evenodd" clip-rule="evenodd" d="M16.6668 0.666626H15.6668C15.1145 0.666626 14.6668 1.11434 14.6668 1.66663V10.3333C14.6668 10.8856 15.1145 11.3333 15.6668 11.3333H16.6668C17.2191 11.3333 17.6668 10.8856 17.6668 10.3333V1.66663C17.6668 1.11434 17.2191 0.666626 16.6668 0.666626ZM11.0001 2.99996H12.0001C12.5524 2.99996 13.0001 3.44767 13.0001 3.99996V10.3333C13.0001 10.8856 12.5524 11.3333 12.0001 11.3333H11.0001C10.4479 11.3333 10.0001 10.8856 10.0001 10.3333V3.99996C10.0001 3.44767 10.4479 2.99996 11.0001 2.99996ZM7.33348 5.33329H6.33348C5.78119 5.33329 5.33348 5.78101 5.33348 6.33329V10.3333C5.33348 10.8856 5.78119 11.3333 6.33348 11.3333H7.33348C7.88576 11.3333 8.33348 10.8856 8.33348 10.3333V6.33329C8.33348 5.78101 7.88576 5.33329 7.33348 5.33329ZM2.66681 7.33329H1.66681C1.11452 7.33329 0.666809 7.78101 0.666809 8.33329V10.3333C0.666809 10.8856 1.11452 11.3333 1.66681 11.3333H2.66681C3.21909 11.3333 3.66681 10.8856 3.66681 10.3333V8.33329C3.66681 7.78101 3.21909 7.33329 2.66681 7.33329Z" fill="black"/>
</svg>
