<svg width="16" height="12" viewBox="0 0 16 12" fill="none" xmlns="http://www.w3.org/2000/svg">
<path fill-rule="evenodd" clip-rule="evenodd" d="M8.33048 2.60802C10.5464 2.60811 12.6775 3.45955 14.2835 4.98635C14.4044 5.10422 14.5977 5.10274 14.7168 4.98302L15.8728 3.81635C15.9331 3.75563 15.9667 3.67338 15.9662 3.58779C15.9657 3.50221 15.9312 3.42036 15.8702 3.36035C11.6551 -0.679198 5.00525 -0.679198 0.790151 3.36035C0.729092 3.42032 0.694448 3.50215 0.693885 3.58773C0.693322 3.67331 0.726886 3.75558 0.787151 3.81635L1.94348 4.98302C2.06251 5.10292 2.25596 5.10441 2.37682 4.98635C3.98297 3.45945 6.11437 2.60801 8.33048 2.60802ZM8.33048 6.40368C9.54797 6.40361 10.722 6.85614 11.6245 7.67335C11.7465 7.78933 11.9388 7.78682 12.0578 7.66768L13.2125 6.50102C13.2733 6.43982 13.307 6.3568 13.3062 6.27054C13.3053 6.18427 13.2699 6.10196 13.2078 6.04202C10.4596 3.48563 6.20368 3.48563 3.45548 6.04202C3.39341 6.10196 3.35799 6.18432 3.35717 6.27061C3.35636 6.3569 3.39022 6.43991 3.45115 6.50102L4.60548 7.66768C4.72447 7.78682 4.91675 7.78933 5.03882 7.67335C5.94069 6.85668 7.1138 6.40419 8.33048 6.40368ZM10.6435 8.9575C10.6452 9.04401 10.6112 9.12741 10.5495 9.18802L8.55215 11.2037C8.4936 11.2629 8.41377 11.2963 8.33048 11.2963C8.24719 11.2963 8.16737 11.2629 8.10882 11.2037L6.11115 9.18802C6.04944 9.12737 6.01549 9.04394 6.01732 8.95743C6.01915 8.87092 6.0566 8.789 6.12082 8.73102C7.39639 7.65213 9.26458 7.65213 10.5402 8.73102C10.6043 8.78905 10.6417 8.87099 10.6435 8.9575Z" fill="black"/>
</svg>
